<svg xmlns="http://www.w3.org/2000/svg" version="1.0" width="512.000000pt" height="512.000000pt"
     viewBox="0 0 512.000000 512.000000" preserveAspectRatio="xMidYMid meet">

    <g transform="translate(0.000000,512.000000) scale(0.100000,-0.100000)" fill="red" stroke="none">
        <path d="M663 4485 c-12 -8 -46 -50 -76 -93 -122 -174 -303 -291 -450 -292 -86 0 -149 -61 -132 -129 18 -71 83 -92 213 -68 160 31 269 90 407 219 l92 87 90 -87 c50 -48 116 -102 146 -121 219 -131 458 -143 686 -36 87 42 131 74 231 171 l75 73 91 -87 c132 -127 245 -188 400 -218 95 -18 153 -18 248 0 155 30 268 91 400 218 l91 87 75 -73 c100 -97 144 -129 231 -171 144 -67 287 -88 426 -62 162 31 273 91 406 219 l90 87 92 -87 c135 -128 247 -188 407 -219 130 -24 195 -3 213 68 17 68 -46 129 -132 129 -149 1 -337 123 -454 296 -57 85 -81 104 -129 104 -43 -1 -65 -19 -115 -95 -88 -135 -243 -258 -369 -291 -60 -16 -182 -18 -244 -4 -126 29 -278 146 -373 286 -57 85 -81 104 -129 104 -41 0 -70 -26 -134 -123 -80 -119 -228 -231 -350 -263 -65 -18 -187 -18 -252 0 -122 32 -270 144 -350 263 -67 100 -92 123 -139 123 -47 0 -67 -17 -133 -116 -22 -33 -74 -92 -115 -130 -114 -107 -226 -154 -368 -154 -142 0 -262 54 -380 170 -41 41 -93 102 -114 135 -22 33 -48 68 -60 77 -25 21 -83 23 -112 3z"/>


    </g>
</svg>